<svg xmlns="http://www.w3.org/2000/svg" viewBox="0 0 1400 1400"><defs><style>.cls-1{isolation:isolate;}.cls-2{fill:#f7ebe1;}.cls-3{fill:#45413c;opacity:0.1;}.cls-4{fill:#8ca4b8;}.cls-5{fill:#f25d3f;}.cls-6{fill:#ff6242;}.cls-7{fill:#ff866e;}.cls-8{fill:#ffa694;}.cls-9{fill:#6c8799;}.cls-10,.cls-12{opacity:0.3;}.cls-10,.cls-16{mix-blend-mode:screen;}.cls-11{fill:#adc4d9;}.cls-12,.cls-18,.cls-21,.cls-28{mix-blend-mode:multiply;}.cls-13{fill:#627b8c;}.cls-14{fill:#4f6270;}.cls-15{fill:#7390a3;}.cls-16,.cls-28{opacity:0.4;}.cls-17{fill:#4f6370;}.cls-18{opacity:0.2;}.cls-19{fill:#00dfeb;}.cls-20{fill:#4cf4fc;}.cls-21,.cls-25{opacity:0.5;}.cls-22{fill:#e04122;}.cls-23{fill:#29abe2;}.cls-24{fill:#6e899c;}.cls-26{fill:#607787;}.cls-27{fill:#7896ab;}.cls-29{fill:#576d7d;}.cls-30{fill:#869cb0;}</style></defs><title>retro-robot-vector-illustration</title><g class="cls-1"><g id="Background"><rect class="cls-2" width="1400" height="1400"/></g><g id="Robot"><ellipse class="cls-3" cx="700" cy="1237.97" rx="238" ry="11.5"/><path class="cls-4" d="M703.09,331H700V319c0-3.29-2.63-5-5.65-7-3.32-2.17-7.08-4.62-7.08-9.62s3.76-7.47,7.07-9.63c3-2,5.66-3.69,5.66-7s-2.63-5-5.65-7c-3.32-2.16-7.08-4.61-7.08-9.61s3.76-7.47,7.07-9.64c3-2,5.66-3.69,5.66-7s-2.63-5-5.66-7c-3.31-2.17-7.07-4.63-7.07-9.66s3.76-7.47,7.07-9.64c3-2,5.66-3.7,5.66-7V206.7h3.14v12.54c0,5-3.76,7.48-7.07,9.64-3,2-5.66,3.7-5.66,7s2.63,5,5.66,7c3.32,2.17,7.07,4.63,7.07,9.65s-3.76,7.46-7.07,9.63c-3,2-5.66,3.69-5.66,7s2.63,5,5.65,7c3.32,2.17,7.08,4.62,7.08,9.62s-3.76,7.46-7.07,9.62c-3,2-5.66,3.7-5.66,7s2.63,5,5.66,7c3.31,2.16,7.07,4.61,7.07,9.61Z"/><path class="cls-5" d="M669.05,363c0-22.8,13.85-41.31,31-41.31-23.7,0-42.92,18.51-42.92,41.31S676.3,404.31,700,404.31C682.9,404.31,669.05,385.82,669.05,363Z"/><path class="cls-5" d="M700,321.69c17.09,0,31,18.51,31,41.31s-13.86,41.31-31,41.31c23.7,0,42.92-18.49,42.92-41.31S723.7,321.69,700,321.69Z"/><path class="cls-6" d="M731,363c0-22.8-13.86-41.31-31-41.31s-31,18.51-31,41.31,13.85,41.31,31,41.31S731,385.82,731,363Z"/><path class="cls-7" d="M682.18,363c0-21.9,7.88-39.76,17.82-41.17a14.93,14.93,0,0,0-1.5-.14c-12.63,0-22.85,18.51-22.85,41.31s10.22,41.31,22.85,41.31a12.48,12.48,0,0,0,1.5-.14C690.06,402.77,682.18,384.9,682.18,363Z"/><ellipse class="cls-6" cx="701.52" cy="208.3" rx="17.77" ry="17.77"/><path class="cls-8" d="M701.07,202.48a5.82,5.82,0,1,1-5.82-5.81A5.83,5.83,0,0,1,701.07,202.48Z"/><rect class="cls-4" x="540.1" y="351.51" width="319.81" height="250.98"/><polygon class="cls-9" points="540.1 507.64 493.9 495.33 493.9 439.87 540.1 427.54 540.1 507.64"/><polygon class="cls-9" points="859.9 507.64 906.1 495.33 906.1 439.87 859.9 427.54 859.9 507.64"/><g class="cls-10"><polygon class="cls-11" points="819.04 522.67 819.04 576.56 580.96 576.56 587.32 570.2 812.68 529.03 819.04 522.67"/></g><g class="cls-12"><polygon class="cls-13" points="580.96 576.56 580.96 522.67 819.04 522.67 812.68 529.03 587.32 570.2 580.96 576.56"/></g><rect class="cls-4" x="587.32" y="529.03" width="225.36" height="41.16"/><rect class="cls-14" x="596.35" y="533.93" width="20.48" height="30.19"/><rect class="cls-14" x="627.49" y="533.93" width="20.48" height="30.19"/><rect class="cls-14" x="658.63" y="533.93" width="20.47" height="30.19"/><rect class="cls-14" x="689.76" y="533.93" width="20.47" height="30.19"/><rect class="cls-14" x="720.9" y="533.93" width="20.47" height="30.19"/><rect class="cls-14" x="752.03" y="533.93" width="20.48" height="30.19"/><rect class="cls-14" x="783.17" y="533.93" width="20.48" height="30.19"/><polygon class="cls-15" points="700 449.24 700 501.95 672.75 487.75 679.1 467.6 700 449.24"/><g class="cls-16"><polygon class="cls-13" points="700 449.24 700 501.95 727.25 487.75 720.9 467.6 700 449.24"/></g><path class="cls-17" d="M622.12,479a38.28,38.28,0,1,1,38.29-38.29A38.34,38.34,0,0,1,622.12,479Zm0-63.62a25.34,25.34,0,1,0,25.35,25.33A25.37,25.37,0,0,0,622.12,415.41Z"/><path class="cls-13" d="M622.12,466.09a25.37,25.37,0,0,1-25.27-23.77,32.55,32.55,0,0,1-6.4-4.6c-.09,1-.15,2-.15,3a31.82,31.82,0,0,0,63.64,0c0-.8-.07-1.61-.12-2.4a33.7,33.7,0,0,1-6.45,4.41A25.37,25.37,0,0,1,622.12,466.09Z"/><g class="cls-18"><path class="cls-13" d="M622.12,408.94a31.83,31.83,0,0,0-31.67,28.78,32.55,32.55,0,0,0,6.4,4.6c0-.52-.07-1-.07-1.58a25.35,25.35,0,0,1,50.69,0c0,.68-.05,1.35-.1,2a33.7,33.7,0,0,0,6.45-4.41A31.79,31.79,0,0,0,622.12,408.94Z"/></g><path class="cls-19" d="M647.58,440.74a25.46,25.46,0,1,1-25.46-25.45A25.45,25.45,0,0,1,647.58,440.74Z"/><path class="cls-20" d="M639.54,440.74a17.42,17.42,0,1,1-17.42-17.42A17.42,17.42,0,0,1,639.54,440.74Z"/><path class="cls-17" d="M777.87,479a38.28,38.28,0,1,1,38.3-38.29A38.34,38.34,0,0,1,777.87,479Zm0-63.62a25.34,25.34,0,1,0,25.35,25.33A25.36,25.36,0,0,0,777.87,415.41Z"/><path class="cls-13" d="M777.87,466.09a25.35,25.35,0,0,1-25.26-23.77,32.26,32.26,0,0,1-6.4-4.6c-.09,1-.16,2-.16,3a31.82,31.82,0,1,0,63.64,0c0-.8-.06-1.61-.12-2.4a33.39,33.39,0,0,1-6.45,4.41A25.36,25.36,0,0,1,777.87,466.09Z"/><g class="cls-18"><path class="cls-13" d="M777.87,408.94a31.81,31.81,0,0,0-31.66,28.78,32.26,32.26,0,0,0,6.4,4.6c0-.52-.08-1-.08-1.58a25.35,25.35,0,0,1,50.69,0c0,.68-.05,1.35-.1,2a33.39,33.39,0,0,0,6.45-4.41A31.78,31.78,0,0,0,777.87,408.94Z"/></g><path class="cls-19" d="M803.33,440.74a25.46,25.46,0,1,1-25.46-25.45A25.45,25.45,0,0,1,803.33,440.74Z"/><path class="cls-20" d="M795.3,440.74a17.43,17.43,0,1,1-17.43-17.42A17.43,17.43,0,0,1,795.3,440.74Z"/><rect class="cls-4" x="596.35" y="602.49" width="207.3" height="33"/><g class="cls-21"><path class="cls-13" d="M596.35,602.13q103.65-.58,207.3,0v.71c-17.27,2.5-34.55,3.66-51.82,4.63s-34.55.9-51.83,1.41c-17.27-.47-34.55-.43-51.82-1.39s-34.55-2.13-51.83-4.65Z"/></g><rect class="cls-4" x="516.99" y="631.93" width="366.02" height="292.28"/><path class="cls-11" d="M517,631.58q183-.6,366,0v.71l-45.75,2.94-45.75,1.68c-30.51,1-61,.91-91.51,1.41-30.5-.47-61-.42-91.51-1.38l-45.75-1.69-45.75-3Z"/><rect class="cls-13" x="550.64" y="924.21" width="298.71" height="24.87"/><g class="cls-21"><path class="cls-13" d="M550.64,923.86q149.36-.6,298.71,0v.71c-24.89,2.49-49.78,3.66-74.68,4.62s-49.78.91-74.67,1.41c-24.9-.47-49.79-.42-74.68-1.39s-49.79-2.13-74.68-4.64Z"/></g><g class="cls-10"><polygon class="cls-4" points="716.99 888.49 849.35 888.49 716.99 667.67 716.99 888.49"/></g><g class="cls-12"><polygon class="cls-13" points="849.35 667.67 716.99 667.67 849.35 888.49 849.35 667.67"/></g><rect class="cls-4" x="725.42" y="680.61" width="107.05" height="179.45"/><path class="cls-22" d="M814.81,718.62a13.21,13.21,0,1,1-13.21-13.21A13.2,13.2,0,0,1,814.81,718.62Z"/><path class="cls-17" d="M801.6,736.07a17.45,17.45,0,1,1,17.45-17.45A17.47,17.47,0,0,1,801.6,736.07Zm0-29a11.56,11.56,0,1,0,11.56,11.55A11.58,11.58,0,0,0,801.6,707.07Z"/><path class="cls-7" d="M811.77,718.62a10.17,10.17,0,1,1-10.17-10.17A10.17,10.17,0,0,1,811.77,718.62Z"/><path class="cls-13" d="M801.6,730.18a11.56,11.56,0,0,1-11.52-10.84,14.85,14.85,0,0,1-2.92-2.1c0,.45-.07.91-.07,1.38a14.51,14.51,0,0,0,29,0c0-.37,0-.74-.06-1.1a15.38,15.38,0,0,1-2.94,2A11.57,11.57,0,0,1,801.6,730.18Z"/><g class="cls-18"><path class="cls-13" d="M801.6,704.12a14.51,14.51,0,0,0-14.44,13.12,14.85,14.85,0,0,0,2.92,2.1c0-.24,0-.47,0-.72a11.56,11.56,0,1,1,23.12,0c0,.31,0,.61,0,.92a15.38,15.38,0,0,0,2.94-2A14.49,14.49,0,0,0,801.6,704.12Z"/></g><path class="cls-19" d="M769.51,718.62a13.21,13.21,0,1,1-13.22-13.21A13.21,13.21,0,0,1,769.51,718.62Z"/><path class="cls-17" d="M756.3,736.07a17.45,17.45,0,1,1,17.45-17.45A17.47,17.47,0,0,1,756.3,736.07Zm0-29a11.56,11.56,0,1,0,11.56,11.55A11.57,11.57,0,0,0,756.3,707.07Z"/><path class="cls-20" d="M766.47,718.62a10.18,10.18,0,1,1-10.17-10.17A10.17,10.17,0,0,1,766.47,718.62Z"/><path class="cls-13" d="M756.3,730.18a11.57,11.57,0,0,1-11.53-10.84,15.08,15.08,0,0,1-2.91-2.1,12.5,12.5,0,0,0-.07,1.38,14.51,14.51,0,1,0,29,0c0-.37,0-.74,0-1.1a15.38,15.38,0,0,1-2.94,2A11.57,11.57,0,0,1,756.3,730.18Z"/><g class="cls-18"><path class="cls-13" d="M756.3,704.12a14.51,14.51,0,0,0-14.44,13.12,15.08,15.08,0,0,0,2.91,2.1c0-.24,0-.47,0-.72a11.56,11.56,0,0,1,23.12,0c0,.31,0,.61-.05.92a15.38,15.38,0,0,0,2.94-2A14.49,14.49,0,0,0,756.3,704.12Z"/></g><path class="cls-20" d="M823.15,825.12a44.2,44.2,0,1,0-88.39,0Z"/><path class="cls-13" d="M824.93,826.89H733v-1.78a46,46,0,0,1,91.95,0Zm-88.36-3.55h84.77a42.42,42.42,0,0,0-84.77,0Z"/><rect class="cls-23" x="741.74" y="819" width="6.61" height="1.59"/><polygon class="cls-23" points="748.82 814.84 742.35 813.62 742.65 812.05 749.12 813.27 748.82 814.84"/><polygon class="cls-23" points="750.58 809.32 744.55 806.91 745.15 805.44 751.18 807.85 750.58 809.32"/><polygon class="cls-23" points="753.58 804.23 748.24 800.74 749.12 799.42 754.45 802.92 753.58 804.23"/><polygon class="cls-23" points="757.69 799.82 753.27 795.42 754.38 794.3 758.81 798.7 757.69 799.82"/><polygon class="cls-23" points="762.71 796.28 759.41 791.15 760.75 790.28 764.05 795.41 762.71 796.28"/><polygon class="cls-23" points="768.45 793.72 766.42 788.08 767.91 787.53 769.95 793.17 768.45 793.72"/><polygon class="cls-23" points="774.64 792.29 773.96 786.39 775.55 786.21 776.24 792.12 774.64 792.29"/><polygon class="cls-23" points="782.63 792.24 781.04 792.07 781.73 786.15 783.32 786.32 782.63 792.24"/><polygon class="cls-23" points="788.86 793.54 787.37 793 789.41 787.36 790.9 787.9 788.86 793.54"/><polygon class="cls-23" points="794.64 795.99 793.3 795.12 796.61 789.99 797.95 790.86 794.64 795.99"/><polygon class="cls-23" points="799.75 799.45 798.63 798.33 803.04 793.93 804.16 795.05 799.75 799.45"/><polygon class="cls-23" points="803.95 803.8 803.08 802.46 808.43 798.96 809.3 800.31 803.95 803.8"/><polygon class="cls-23" points="807.06 808.81 806.46 807.34 812.5 804.92 813.1 806.38 807.06 808.81"/><polygon class="cls-23" points="808.95 814.31 808.65 812.75 815.11 811.5 815.41 813.07 808.95 814.31"/><rect class="cls-23" x="809.53" y="818.43" width="6.61" height="1.59"/><path class="cls-13" d="M774.94,822a4.51,4.51,0,1,0,4.51-4.52A4.52,4.52,0,0,0,774.94,822Z"/><rect class="cls-6" x="769.64" y="792.22" width="3.56" height="31.95" transform="translate(-301.81 497.65) rotate(-30.2)"/><path class="cls-11" d="M776.42,822a3,3,0,1,0,3-3A3,3,0,0,0,776.42,822Z"/><g class="cls-10"><polygon class="cls-11" points="683.01 888.49 550.65 888.49 683.01 667.67 683.01 888.49"/></g><g class="cls-12"><polygon class="cls-13" points="550.65 667.67 683.01 667.67 550.65 888.49 550.65 667.67"/></g><rect class="cls-4" x="567.52" y="680.61" width="107.05" height="179.45"/><path class="cls-22" d="M656.92,718.62a13.22,13.22,0,1,1-13.22-13.21A13.21,13.21,0,0,1,656.92,718.62Z"/><path class="cls-17" d="M643.7,736.07a17.45,17.45,0,1,1,17.47-17.45A17.48,17.48,0,0,1,643.7,736.07Zm0-29a11.56,11.56,0,1,0,11.56,11.55A11.56,11.56,0,0,0,643.7,707.07Z"/><path class="cls-7" d="M653.88,718.62a10.18,10.18,0,1,1-10.18-10.17A10.17,10.17,0,0,1,653.88,718.62Z"/><path class="cls-13" d="M643.7,730.18a11.57,11.57,0,0,1-11.52-10.84,15.47,15.47,0,0,1-2.92-2.1c0,.45-.07.91-.07,1.38a14.51,14.51,0,1,0,29,0c0-.37,0-.74-.05-1.1a15.38,15.38,0,0,1-2.94,2A11.57,11.57,0,0,1,643.7,730.18Z"/><g class="cls-18"><path class="cls-13" d="M643.7,704.12a14.51,14.51,0,0,0-14.44,13.12,15.47,15.47,0,0,0,2.92,2.1c0-.24,0-.47,0-.72a11.56,11.56,0,1,1,23.11,0c0,.31,0,.61,0,.92a15.38,15.38,0,0,0,2.94-2A14.49,14.49,0,0,0,643.7,704.12Z"/></g><path class="cls-19" d="M611.61,718.62a13.21,13.21,0,1,1-13.21-13.21A13.2,13.2,0,0,1,611.61,718.62Z"/><path class="cls-17" d="M598.4,736.07a17.45,17.45,0,1,1,17.46-17.45A17.47,17.47,0,0,1,598.4,736.07Zm0-29A11.56,11.56,0,1,0,610,718.62,11.56,11.56,0,0,0,598.4,707.07Z"/><path class="cls-20" d="M608.58,718.62a10.18,10.18,0,1,1-10.18-10.17A10.17,10.17,0,0,1,608.58,718.62Z"/><path class="cls-13" d="M598.4,730.18a11.57,11.57,0,0,1-11.52-10.84,14.85,14.85,0,0,1-2.92-2.1c0,.45-.07.91-.07,1.38a14.51,14.51,0,0,0,29,0c0-.37,0-.74,0-1.1a15.46,15.46,0,0,1-3,2A11.56,11.56,0,0,1,598.4,730.18Z"/><g class="cls-18"><path class="cls-13" d="M598.4,704.12A14.51,14.51,0,0,0,584,717.24a14.85,14.85,0,0,0,2.92,2.1c0-.24,0-.47,0-.72a11.56,11.56,0,1,1,23.11,0c0,.31,0,.61-.05.92a15.46,15.46,0,0,0,3-2A14.49,14.49,0,0,0,598.4,704.12Z"/></g><path class="cls-20" d="M576.85,825.12a44.2,44.2,0,1,1,88.39,0Z"/><path class="cls-13" d="M667,826.89H575.07v-1.78a46,46,0,0,1,91.95,0Zm-88.36-3.55h84.77a42.42,42.42,0,0,0-84.77,0Z"/><rect class="cls-23" x="651.65" y="819" width="6.61" height="1.59"/><polygon class="cls-23" points="651.19 814.84 650.89 813.27 657.35 812.05 657.65 813.62 651.19 814.84"/><polygon class="cls-23" points="649.41 809.32 648.83 807.85 654.86 805.44 655.44 806.91 649.41 809.32"/><polygon class="cls-23" points="646.42 804.25 645.55 802.9 650.89 799.42 651.76 800.74 646.42 804.25"/><polygon class="cls-23" points="642.31 799.82 641.19 798.7 645.61 794.3 646.73 795.42 642.31 799.82"/><polygon class="cls-23" points="637.28 796.28 635.95 795.41 639.25 790.28 640.59 791.15 637.28 796.28"/><polygon class="cls-23" points="631.55 793.72 630.06 793.17 632.1 787.53 633.59 788.08 631.55 793.72"/><polygon class="cls-23" points="625.35 792.29 623.77 792.12 624.46 786.21 626.04 786.39 625.35 792.29"/><polygon class="cls-23" points="617.37 792.24 616.69 786.32 618.27 786.15 618.95 792.07 617.37 792.24"/><polygon class="cls-23" points="611.14 793.54 609.1 787.9 610.59 787.36 612.63 793 611.14 793.54"/><polygon class="cls-23" points="605.36 795.99 602.05 790.86 603.4 789.99 606.7 795.12 605.36 795.99"/><polygon class="cls-23" points="600.25 799.45 595.83 795.05 596.95 793.93 601.37 798.33 600.25 799.45"/><polygon class="cls-23" points="596.04 803.8 590.71 800.29 591.58 798.98 596.91 802.46 596.04 803.8"/><polygon class="cls-23" points="592.94 808.81 586.9 806.38 587.5 804.92 593.53 807.34 592.94 808.81"/><polygon class="cls-23" points="591.05 814.31 584.59 813.07 584.88 811.5 591.35 812.75 591.05 814.31"/><rect class="cls-23" x="583.86" y="818.43" width="6.61" height="1.59"/><path class="cls-13" d="M625.06,822a4.51,4.51,0,1,1-4.51-4.52A4.52,4.52,0,0,1,625.06,822Z"/><rect class="cls-6" x="612.61" y="806.42" width="31.95" height="3.55" transform="translate(-386.21 944.18) rotate(-59.76)"/><path class="cls-11" d="M623.58,822a3,3,0,1,1-3-3A3,3,0,0,1,623.58,822Z"/><rect class="cls-4" x="556.02" y="949.08" width="133.69" height="241.64"/><rect class="cls-24" x="551.12" y="1037.33" width="144.02" height="44.42"/><g class="cls-21"><path class="cls-13" d="M688.23,1036.85c-22-6.42-44.07-7.88-66.11-8.11-22,.27-44.07,1.73-66.1,8.11v1l66.1.47,66.11-.47Z"/></g><g class="cls-21"><path class="cls-13" d="M688.23,1081.27l-66.11-.47-66.1.47v1c22,6.38,44.07,7.84,66.1,8.11,22-.23,44.07-1.69,66.11-8.11Z"/></g><g class="cls-25"><rect class="cls-13" x="621.08" y="949.08" width="3.55" height="241.64"/></g><g class="cls-16"><path class="cls-13" d="M558.52,1052.28a4.59,4.59,0,0,0,4.59,4.6H683.63a4.6,4.6,0,0,0,4.6-4.6h0a4.6,4.6,0,0,0-4.6-4.58H563.11a4.59,4.59,0,0,0-4.59,4.58Z"/></g><rect class="cls-26" x="550.86" y="1188.02" width="144.02" height="51.53" rx="3"/><path class="cls-27" d="M556.83,1233.68c0,.72,1.46,1.31,3.27,1.31H685.63c1.8,0,3.26-.59,3.26-1.31v-16.13c0-.71-1.46-1.3-3.26-1.3H560.1c-1.81,0-3.27.59-3.27,1.3Z"/><rect class="cls-4" x="710.29" y="949.08" width="133.69" height="241.64"/><rect class="cls-24" x="704.86" y="1037.33" width="144.02" height="44.42"/><g class="cls-21"><path class="cls-13" d="M711.77,1036.85c22-6.42,44.07-7.88,66.11-8.11,22,.27,44.07,1.73,66.1,8.11v1l-66.1.47-66.11-.47Z"/></g><g class="cls-21"><path class="cls-13" d="M711.77,1081.27l66.11-.47,66.1.47v1c-22,6.38-44.07,7.84-66.1,8.11-22-.23-44.07-1.69-66.11-8.11Z"/></g><g class="cls-25"><rect class="cls-13" x="775.36" y="949.08" width="3.55" height="241.64"/></g><g class="cls-16"><path class="cls-13" d="M841.48,1052.28a4.59,4.59,0,0,1-4.59,4.6H716.37a4.6,4.6,0,0,1-4.6-4.6h0a4.6,4.6,0,0,1,4.6-4.58H836.89a4.59,4.59,0,0,1,4.59,4.58Z"/></g><rect class="cls-26" x="705.12" y="1188.02" width="144.02" height="51.53" rx="3"/><path class="cls-27" d="M843.17,1233.68c0,.72-1.46,1.31-3.27,1.31H714.37c-1.8,0-3.26-.59-3.26-1.31v-16.13c0-.71,1.46-1.3,3.26-1.3H839.9c1.81,0,3.27.59,3.27,1.3Z"/><path class="cls-13" d="M439.41,693.37a3.56,3.56,0,0,1-3.56,3.55h-7.11a3.55,3.55,0,0,1-3.54-3.55V662.06a3.56,3.56,0,0,1,3.54-3.55h7.11a3.57,3.57,0,0,1,3.56,3.55Z"/><rect class="cls-4" x="439.41" y="705.48" width="70.18" height="110.46"/><rect class="cls-4" x="440.14" y="827.78" width="70.19" height="66.03"/><rect class="cls-24" x="432.3" y="649.96" width="84.69" height="55.52"/><g class="cls-28"><path class="cls-13" d="M508.84,705.86q-33.6.63-67.21,0v-.76a65.27,65.27,0,0,1,16.8-5,93.74,93.74,0,0,1,16.81-1.51,91.72,91.72,0,0,1,16.8,1.49l8.4,1.8c2.8,1.07,5.6,1.7,8.4,3.17Z"/></g><g class="cls-16"><path class="cls-13" d="M512.64,668.65c0,3.17-1.21,5.74-2.7,5.74H439.07c-1.5,0-2.71-2.57-2.71-5.74h0c0-3.17,1.21-5.73,2.71-5.73h70.87c1.49,0,2.7,2.56,2.7,5.73Z"/></g><rect class="cls-24" x="432.89" y="804.09" width="84.7" height="23.69"/><g class="cls-16"><path class="cls-13" d="M513.23,812.07a2.59,2.59,0,0,1-2.7,2.45H439.65a2.58,2.58,0,0,1-2.69-2.45h0a2.57,2.57,0,0,1,2.69-2.45h70.88a2.58,2.58,0,0,1,2.7,2.45Z"/></g><g class="cls-28"><path class="cls-13" d="M432.48,658.51q.28,19.2,0,38.41h-.36a46.58,46.58,0,0,1-2.32-9.6c-.48-3.2-.46-6.4-.7-9.6.26-3.21.21-6.41.71-9.61a47.2,47.2,0,0,1,2.31-9.6Z"/></g><rect class="cls-29" x="450.1" y="917.8" width="49.27" height="21.46"/><path class="cls-24" d="M540.83,962.67H498.2V925.34a7.11,7.11,0,0,0-7.11-7.09h-32a7.1,7.1,0,0,0-7.11,7.09v37.33H409.35V925.34a49.82,49.82,0,0,1,49.76-49.74h32a49.81,49.81,0,0,1,49.74,49.74Z"/><path class="cls-30" d="M486.66,899.72H463.53a36,36,0,0,0-36,36v27H452V925.34a7.1,7.1,0,0,1,7.11-7.09h32a7.11,7.11,0,0,1,7.11,7.09v37.33h24.42v-27A36,36,0,0,0,486.66,899.72Z"/><rect class="cls-29" x="409.35" y="962.67" width="42.75" height="21.46"/><rect class="cls-29" x="498.08" y="962.67" width="42.76" height="21.46"/><path class="cls-13" d="M960.59,693.37a3.56,3.56,0,0,0,3.56,3.55h7.11a3.55,3.55,0,0,0,3.54-3.55V662.06a3.56,3.56,0,0,0-3.54-3.55h-7.11a3.57,3.57,0,0,0-3.56,3.55Z"/><rect class="cls-4" x="890.41" y="705.48" width="70.18" height="110.46"/><rect class="cls-4" x="889.67" y="827.78" width="70.19" height="66.03"/><rect class="cls-24" x="883.01" y="649.96" width="84.69" height="55.52"/><g class="cls-28"><path class="cls-13" d="M891.16,705.86q33.6.63,67.21,0v-.76a65.27,65.27,0,0,0-16.8-5,93.74,93.74,0,0,0-16.81-1.51,91.72,91.72,0,0,0-16.8,1.49l-8.4,1.8c-2.8,1.07-5.6,1.7-8.4,3.17Z"/></g><g class="cls-16"><path class="cls-13" d="M887.36,668.65c0,3.17,1.21,5.74,2.7,5.74h70.87c1.5,0,2.71-2.57,2.71-5.74h0c0-3.17-1.21-5.73-2.71-5.73H890.06c-1.49,0-2.7,2.56-2.7,5.73Z"/></g><rect class="cls-24" x="882.41" y="804.09" width="84.7" height="23.69"/><g class="cls-16"><path class="cls-13" d="M886.77,812.07a2.59,2.59,0,0,0,2.7,2.45h70.88a2.58,2.58,0,0,0,2.69-2.45h0a2.57,2.57,0,0,0-2.69-2.45H889.47a2.58,2.58,0,0,0-2.7,2.45Z"/></g><g class="cls-28"><path class="cls-13" d="M967.52,658.51q-.28,19.2,0,38.41h.36a46.58,46.58,0,0,0,2.32-9.6c.48-3.2.46-6.4.7-9.6-.26-3.21-.21-6.41-.71-9.61a47.2,47.2,0,0,0-2.31-9.6Z"/></g><rect class="cls-29" x="900.62" y="917.8" width="49.27" height="21.46"/><path class="cls-24" d="M859.17,962.67H901.8V925.34a7.11,7.11,0,0,1,7.11-7.09h32a7.1,7.1,0,0,1,7.11,7.09v37.33h42.65V925.34a49.82,49.82,0,0,0-49.76-49.74h-32a49.81,49.81,0,0,0-49.74,49.74Z"/><path class="cls-30" d="M913.34,899.72h23.13a36,36,0,0,1,36,36v27H948V925.34a7.1,7.1,0,0,0-7.11-7.09h-32a7.11,7.11,0,0,0-7.11,7.09v37.33H877.38v-27A36,36,0,0,1,913.34,899.72Z"/><rect class="cls-29" x="947.9" y="962.67" width="42.75" height="21.46"/><rect class="cls-29" x="859.17" y="962.67" width="42.76" height="21.46"/></g></g></svg>